<svg width="85" height="57" viewBox="0 0 85 57" fill="none" xmlns="http://www.w3.org/2000/svg">
<path d="M0 48.3501V0H14.7306L17.6813 3.01903V45.3197L14.7306 48.3387H0V48.3501ZM11.7799 42.312V6.04945H5.88996V42.312H11.7799Z" fill="#1B988D"/>
<path d="M46.0825 48.3501V0H63.7524V27.1941L60.8017 30.2131L63.7524 33.2321V48.3387H46.0825V48.3501ZM57.8624 27.2055V6.04945H51.9725V27.2055H57.8624ZM57.8624 42.312V33.2435H51.9725V42.312H57.8624Z" fill="#1B988D"/>
<path d="M57.4414 46.5046C55.6641 46.5046 54.2173 45.0577 54.2173 43.2805C54.2173 41.5033 55.6641 40.0564 57.4414 40.0564C59.2186 40.0564 60.6655 41.5033 60.6655 43.2805C60.6655 45.0577 59.23 46.5046 57.4414 46.5046Z" fill="#1B988D"/>
<path d="M67.3301 48.3501V0H85V48.3501H67.3301ZM79.11 42.312V6.04945H73.22V42.312H79.11Z" fill="#1B988D"/>
<path d="M33.2887 42.3115H27.3987V33.243H21.5088V48.3495H39.1787V33.243H33.2887V42.3115Z" fill="#1B988D"/>
<path d="M46.6523 38.3247C46.6523 35.4994 46.6523 32.674 46.6523 29.8487C46.6637 26.955 48.5435 24.6081 51.3574 23.9587C54.5588 23.2296 57.8626 25.4739 58.3753 28.7208C58.4322 29.1081 58.4664 29.4955 58.4664 29.8828C58.4778 32.7652 58.4778 35.6361 58.4664 38.5184C58.4664 38.9513 58.5689 39.1678 59.0019 39.3273C60.8589 40.0222 62.0209 42.0273 61.7019 43.8957C61.3487 46.0147 59.7196 47.473 57.6006 47.5641C55.6069 47.6553 53.841 46.3451 53.317 44.3742C52.7587 42.2894 53.841 40.1134 55.8689 39.3387C56.279 39.1792 56.4271 38.9969 56.4157 38.5412C56.393 35.6475 56.4044 32.7538 56.4044 29.8601C56.4044 27.6157 54.741 25.8954 52.5992 25.8954C50.4346 25.884 48.7371 27.6271 48.7371 29.8828C48.7257 35.4196 48.7371 40.945 48.7371 46.4818C48.7257 51.0958 45.6839 54.9237 41.1839 55.9946C35.818 57.2706 30.2584 53.5452 29.5065 48.0996C29.3128 46.6869 29.3812 45.2286 29.3698 43.7932C29.3698 43.3603 29.2103 43.2008 28.8001 43.1552C24.038 42.6084 19.857 38.8488 18.843 34.1437C18.6494 33.2437 18.5468 32.3095 18.5354 31.3867C18.5013 27.1258 18.524 22.8536 18.524 18.5928C18.524 17.7156 18.9114 17.3168 19.7886 17.3168C21.1102 17.3054 22.4317 17.3054 23.7532 17.3168C24.3684 17.3168 24.79 17.6472 24.8811 18.1371C24.9836 18.6839 24.7444 19.1396 24.2431 19.3219C24.0722 19.3789 23.8785 19.3903 23.6963 19.3903C22.7963 19.4017 21.9076 19.4017 21.0076 19.3903C20.7 19.3903 20.5975 19.4928 20.5975 19.8004C20.6089 23.9131 20.4608 28.0258 20.6545 32.1386C20.8595 36.5931 24.2431 40.1703 28.4584 40.9564C33.9268 41.9818 38.8256 38.6665 39.999 33.2209C40.1016 32.7424 40.1585 32.2525 40.1585 31.7626C40.1699 27.8208 40.1585 23.879 40.1813 19.9371C40.1813 19.527 40.0788 19.3675 39.6459 19.3903C38.7686 19.4245 37.8914 19.4017 37.0028 19.4017C36.2965 19.4017 35.8749 19.0143 35.8749 18.3877C35.8749 17.7611 36.2965 17.3396 36.9914 17.3396C38.3585 17.3282 39.737 17.3282 41.1041 17.3396C41.856 17.351 42.2434 17.7725 42.2434 18.5244C42.2434 22.9448 42.2662 27.3537 42.232 31.774C42.1978 36.9804 38.2674 41.8223 33.1863 42.9501C32.742 43.0527 32.2863 43.0754 31.842 43.2008C31.6711 43.2463 31.4204 43.44 31.4204 43.5653C31.4318 45.2059 31.2495 46.8464 31.6597 48.4641C32.4116 51.4376 34.9977 53.6592 38.0281 54.1035C41.8332 54.6503 46.0257 52.03 46.6181 47.4274C46.6523 47.1312 46.6523 46.8236 46.6523 46.516C46.6523 43.7704 46.6523 41.0476 46.6523 38.3247ZM59.6512 43.2691C59.6512 42.0615 58.6601 41.0704 57.4639 41.0704C56.2562 41.0704 55.2309 42.0957 55.2309 43.3033C55.2423 44.4881 56.2448 45.4907 57.4411 45.5021C58.6601 45.5135 59.6626 44.4995 59.6512 43.2691Z" fill="#134D72"/>
<path d="M27.3987 6.04909H33.2887V17.3163H39.1787V0.0110168H21.5088V17.3163H27.3987V6.04909Z" fill="#1B988D"/>
<path d="M51.9725 20.45H46.0825V48.3618H51.9725V20.45Z" fill="#1B988D"/>
<path d="M39.179 13.4084H33.2891V35.4986H39.179V13.4084Z" fill="#1B988D"/>
<path d="M27.3987 13.1361H21.5088V35.2263H27.3987V13.1361Z" fill="#1B988D"/>
</svg>
