<svg width="20" height="20" viewBox="0 0 20 20" fill="none" xmlns="http://www.w3.org/2000/svg">
<path fill-rule="evenodd" clip-rule="evenodd" d="M5.66667 0C6.21895 0 6.66667 0.447715 6.66667 1V3H13.3333V1C13.3333 0.447715 13.781 0 14.3333 0C14.8856 0 15.3333 0.447715 15.3333 1V3H16.3333C18.3584 3 20 4.64162 20 6.66667V10.2256C20 10.7795 19.3443 11.1128 18.8412 10.881C18.0781 10.5294 17.2286 10.3333 16.3333 10.3333C13.0196 10.3333 10.3333 13.0196 10.3333 16.3333C10.3333 17.2286 10.5294 18.0781 10.881 18.8412C11.1128 19.3443 10.7795 20 10.2256 20H2.66667C1.19391 20 0 18.8061 0 17.3333V6.66667C0 4.64162 1.64162 3 3.66667 3H4.66667V1C4.66667 0.447715 5.11438 0 5.66667 0ZM18 6.66667C18 5.74619 17.2538 5 16.3333 5H3.66667C2.74619 5 2 5.74619 2 6.66667V7.33333H18V6.66667Z" fill="#D7D7D7"/>
<path d="M12.6667 16.3333C12.6667 15.781 13.1144 15.3333 13.6667 15.3333H15.3333V13.6667C15.3333 13.1144 15.781 12.6667 16.3333 12.6667C16.8856 12.6667 17.3333 13.1144 17.3333 13.6667V15.3333H19C19.5523 15.3333 20 15.781 20 16.3333C20 16.8856 19.5523 17.3333 19 17.3333H17.3333V19C17.3333 19.5523 16.8856 20 16.3333 20C15.781 20 15.3333 19.5523 15.3333 19V17.3333H13.6667C13.1144 17.3333 12.6667 16.8856 12.6667 16.3333Z" fill="#D7D7D7"/>
</svg>
